<mxfile host="app.diagrams.net" modified="2023-03-23T17:32:16.643Z" agent="Mozilla/5.0 (Macintosh; Intel Mac OS X 10_15_7) AppleWebKit/537.36 (KHTML, like Gecko) Chrome/111.0.0.0 Safari/537.36" version="21.1.0" etag="h8R8yihtcped__UmnUw5" type="github">
  <diagram name="Страница 1" id="OgijyFXOI0_sX2VWFXMb">
    <mxGraphModel>
      <root>
        <mxCell id="0" />
        <mxCell id="1" parent="0" />
      </root>
    </mxGraphModel>
  </diagram>
</mxfile>
